<svg width="60" height="60" viewBox="0 0 60 60" fill="none" xmlns="http://www.w3.org/2000/svg">
  <path d="M18.75 8.75C14.8605 8.86669 12.5415 9.29959 10.9369 10.9057C8.74023 13.1044 8.74023 16.6433 8.74023 23.7209L8.74023 39.986C8.74024 47.0637 8.74024 50.6025 10.9369 52.8013C13.1336 55 16.6692 55 23.7402 55L36.2402 55C43.3113 55 46.8468 55 49.0435 52.8013C51.2402 50.6025 51.2402 47.0637 51.2402 39.986V23.7209C51.2402 16.6433 51.2402 13.1044 49.0435 10.9057C47.4389 9.29959 45.12 8.86669 41.2305 8.75" stroke="#141B34" stroke-width="1.5"/>
  <path d="M18.7402 9.375C18.7402 6.95875 20.699 5 23.1152 5H36.8652C39.2815 5 41.2402 6.95875 41.2402 9.375C41.2402 11.7912 39.2815 13.75 36.8652 13.75H23.1152C20.699 13.75 18.7402 11.7912 18.7402 9.375Z" stroke="#141B34" stroke-width="1.5" stroke-linejoin="round"/>
  <path d="M33.75 27.5L42.5 27.5" stroke="#141B34" stroke-width="1.5" stroke-linecap="round"/>
  <path d="M17.5 30C17.5 30 18.75 30 20 32.5C20 32.5 23.9706 26.25 27.5 25" stroke="#141B34" stroke-width="1.5" stroke-linecap="round" stroke-linejoin="round"/>
  <path d="M33.75 42.5H42.5" stroke="#141B34" stroke-width="1.5" stroke-linecap="round"/>
  <path d="M20 42.5H22.5" stroke="#141B34" stroke-width="2" stroke-linecap="round" stroke-linejoin="round"/>
</svg>
