<svg width="60" height="60" viewBox="0 0 60 60" fill="none" xmlns="http://www.w3.org/2000/svg">
  <path fill-rule="evenodd" clip-rule="evenodd" d="M30 15C32.7614 15 35 12.7614 35 10C35 7.23857 32.7614 5 30 5C27.2386 5 25 7.23857 25 10C25 12.7614 27.2386 15 30 15Z" stroke="#60646C" stroke-width="2" stroke-linecap="round" stroke-linejoin="round"/>
  <path fill-rule="evenodd" clip-rule="evenodd" d="M30 35C32.7614 35 35 32.7614 35 30C35 27.2386 32.7614 25 30 25C27.2386 25 25 27.2386 25 30C25 32.7614 27.2386 35 30 35Z" stroke="#60646C" stroke-width="2" stroke-linecap="round" stroke-linejoin="round"/>
  <path fill-rule="evenodd" clip-rule="evenodd" d="M42.9906 22.4999C44.3714 24.8914 47.4292 25.7108 49.8207 24.33C52.2122 22.9493 53.0316 19.8914 51.6509 17.4999C50.2701 15.1084 47.2122 14.289 44.8207 15.6698C42.4292 17.0505 41.6099 20.1084 42.9906 22.4999Z" stroke="#60646C" stroke-width="2" stroke-linecap="round" stroke-linejoin="round"/>
  <path fill-rule="evenodd" clip-rule="evenodd" d="M42.9906 37.4999C41.6099 39.8914 42.4292 42.9493 44.8207 44.33C47.2122 45.7108 50.2701 44.8914 51.6509 42.4999C53.0316 40.1084 52.2122 37.0505 49.8207 35.6698C47.4292 34.289 44.3714 35.1084 42.9906 37.4999Z" stroke="#60646C" stroke-width="2" stroke-linecap="round" stroke-linejoin="round"/>
  <path fill-rule="evenodd" clip-rule="evenodd" d="M30 45C27.2386 45 25 47.2386 25 50C25 52.7614 27.2386 55 30 55C32.7614 55 35 52.7614 35 50C35 47.2386 32.7614 45 30 45Z" stroke="#60646C" stroke-width="2" stroke-linecap="round" stroke-linejoin="round"/>
  <path fill-rule="evenodd" clip-rule="evenodd" d="M17.0098 37.4999C15.629 35.1084 12.5711 34.289 10.1797 35.6698C7.7882 37.0505 6.96883 40.1084 8.34954 42.4999C9.73025 44.8914 12.7881 45.7108 15.1796 44.33C17.5711 42.9493 18.3905 39.8914 17.0098 37.4999Z" stroke="#60646C" stroke-width="2" stroke-linecap="round" stroke-linejoin="round"/>
  <path fill-rule="evenodd" clip-rule="evenodd" d="M17.0098 22.4999C18.3905 20.1084 17.5711 17.0505 15.1796 15.6698C12.7881 14.289 9.73025 15.1084 8.34954 17.4999C6.96883 19.8914 7.7882 22.9493 10.1797 24.33C12.5711 25.7108 15.629 24.8914 17.0098 22.4999Z" stroke="#60646C" stroke-width="2" stroke-linecap="round" stroke-linejoin="round"/>
</svg>
